<?xml version="1.0" encoding="UTF-8" standalone="no"?>
<!-- Generator: Adobe Illustrator 18.1.1, SVG Export Plug-In . SVG Version: 6.00 Build 0)  -->

<svg
   xmlns:dc="http://purl.org/dc/elements/1.1/"
   xmlns:cc="http://creativecommons.org/ns#"
   xmlns:rdf="http://www.w3.org/1999/02/22-rdf-syntax-ns#"
   xmlns:svg="http://www.w3.org/2000/svg"
   xmlns="http://www.w3.org/2000/svg"
   xmlns:sodipodi="http://sodipodi.sourceforge.net/DTD/sodipodi-0.dtd"
   xmlns:inkscape="http://www.inkscape.org/namespaces/inkscape"
   version="1.1"
   id="Capa_1"
   x="0px"
   y="0px"
   viewBox="0 0 591.6 591.6"
   style="enable-background:new 0 0 591.6 591.6;"
   xml:space="preserve"
   sodipodi:docname="plus-sign-svgrepo-com.svg"
   inkscape:version="0.92.5 (2060ec1f9f, 2020-04-08)"><metadata
   id="metadata3884"><rdf:RDF><cc:Work
       rdf:about=""><dc:format>image/svg+xml</dc:format><dc:type
         rdf:resource="http://purl.org/dc/dcmitype/StillImage" /></cc:Work></rdf:RDF></metadata><defs
   id="defs3882" /><sodipodi:namedview
   pagecolor="#ffffff"
   bordercolor="#666666"
   borderopacity="1"
   objecttolerance="10"
   gridtolerance="10"
   guidetolerance="10"
   inkscape:pageopacity="0"
   inkscape:pageshadow="2"
   inkscape:window-width="1920"
   inkscape:window-height="1016"
   id="namedview3880"
   showgrid="false"
   inkscape:zoom="1.4164977"
   inkscape:cx="164.84319"
   inkscape:cy="295.79999"
   inkscape:window-x="0"
   inkscape:window-y="27"
   inkscape:window-maximized="1"
   inkscape:current-layer="Capa_1" />
<g
   id="g3847"
   transform="rotate(45,295.8,295.8)">
	<g
   id="g3845">
		<path fill="#c70000"
   d="M 581.4,244.8 H 346.8 V 10.2 C 346.8,4.488 342.312,0 336.6,0 H 255 c -5.712,0 -10.2,4.488 -10.2,10.2 V 244.8 H 10.2 C 4.488,244.8 0,249.288 0,255 v 81.6 c 0,5.712 4.488,10.2 10.2,10.2 h 234.6 v 234.6 c 0,5.712 4.488,10.2 10.2,10.2 h 81.6 c 5.712,0 10.2,-4.488 10.2,-10.2 V 346.8 h 234.6 c 5.712,0 10.2,-4.488 10.2,-10.2 V 255 c 0,-5.712 -4.488,-10.2 -10.2,-10.2 z m -10.2,81.6 H 336.6 c -5.712,0 -10.2,4.488 -10.2,10.2 V 571.2 H 265.2 V 336.6 c 0,-5.712 -4.488,-10.2 -10.2,-10.2 H 20.4 V 265.2 H 255 c 5.712,0 10.2,-4.488 10.2,-10.2 V 20.4 h 61.2 V 255 c 0,5.712 4.488,10.2 10.2,10.2 h 234.6 z"
   id="path3841"
   inkscape:connector-curvature="0" />
		<path fill="#c70000"
   d="m 303.96,33.66 h -20.4 c -2.856,0 -5.1,2.244 -5.1,5.1 v 204 c 0,2.856 2.244,5.1 5.1,5.1 2.856,0 5.1,-2.244 5.1,-5.1 V 43.86 h 15.3 c 2.856,0 5.1,-2.244 5.1,-5.1 0,-2.856 -2.244,-5.1 -5.1,-5.1 z"
   id="path3843"
   inkscape:connector-curvature="0" />
	</g>
</g>
<g
   id="g3849"
   transform="rotate(45,295.8,295.8)">
</g>
<g
   id="g3851"
   transform="rotate(45,295.8,295.8)">
</g>
<g
   id="g3853"
   transform="rotate(45,295.8,295.8)">
</g>
<g
   id="g3855"
   transform="rotate(45,295.8,295.8)">
</g>
<g
   id="g3857"
   transform="rotate(45,295.8,295.8)">
</g>
<g
   id="g3859"
   transform="rotate(45,295.8,295.8)">
</g>
<g
   id="g3861"
   transform="rotate(45,295.8,295.8)">
</g>
<g
   id="g3863"
   transform="rotate(45,295.8,295.8)">
</g>
<g
   id="g3865"
   transform="rotate(45,295.8,295.8)">
</g>
<g
   id="g3867"
   transform="rotate(45,295.8,295.8)">
</g>
<g
   id="g3869"
   transform="rotate(45,295.8,295.8)">
</g>
<g
   id="g3871"
   transform="rotate(45,295.8,295.8)">
</g>
<g
   id="g3873"
   transform="rotate(45,295.8,295.8)">
</g>
<g
   id="g3875"
   transform="rotate(45,295.8,295.8)">
</g>
<g
   id="g3877"
   transform="rotate(45,295.8,295.8)">
</g>
</svg>